<?xml version="1.0" encoding="UTF-8" standalone="no"?>
<!DOCTYPE svg PUBLIC "-//W3C//DTD SVG 1.1//EN" "http://www.w3.org/Graphics/SVG/1.1/DTD/svg11.dtd">
<svg width="100%" height="100%" viewBox="0 0 3840 2160" version="1.1" xmlns="http://www.w3.org/2000/svg" xmlns:xlink="http://www.w3.org/1999/xlink" xml:space="preserve" xmlns:serif="http://www.serif.com/" style="fill-rule:evenodd;clip-rule:evenodd;stroke-linejoin:bevel;stroke-miterlimit:1.5;">
    <g id="Lamp">
        <path d="M1706.075,1431.169L2239.528,1433.323C2239.528,1433.323 2235.553,1422.308 2233.495,1419.535C2230.192,1415.082 2217.121,1406.177 2217.121,1406.177L1730.205,1406.608C1730.205,1406.608 1714.621,1411.85 1710.815,1416.088C1707.181,1420.132 1706.075,1431.169 1706.075,1431.169Z" style="fill:rgb(155,120,53);"/>
        <g transform="matrix(1.211599,0,0,1,-416.812124,39.975965)">
            <path d="M1706.075,1431.169L2239.528,1433.323C2239.528,1433.323 2235.553,1422.308 2233.495,1419.535C2230.192,1415.082 2217.121,1406.177 2217.121,1406.177L1730.205,1406.608C1730.205,1406.608 1714.621,1411.85 1710.815,1416.088C1707.181,1420.132 1706.075,1431.169 1706.075,1431.169Z" style="fill:rgb(155,120,53);"/>
        </g>
        <g transform="matrix(0.992424,0,0,1,14.659219,0)">
            <path d="M1953.33,731.623C1947.83,729.333 1942.513,724.448 1939.848,719.12C1936.796,713.015 1933.796,703.051 1935.017,694.997C1936.446,685.571 1945.505,669.681 1949.56,662.14C1952.052,657.505 1955.799,653.163 1959.348,649.752C1962.727,646.504 1971.13,641.673 1971.13,641.673C1971.13,641.673 1983.322,650.663 1987.802,656.754C1993.679,664.744 2003.961,678.838 2006.115,689.61C2008.222,700.146 2004.496,713.631 2000.725,721.389C1997.417,728.195 1990.61,730.78 1983.347,732.349C1975.447,734.054 1960.323,734.534 1953.33,731.623Z" style="fill:rgb(155,120,53);"/>
        </g>
        <g transform="matrix(1,0,0,1,0.131634,-2.481979)">
            <path d="M1947.01,739.47C1938.108,745.579 1938.118,760.191 1951.974,759.825C1964.012,759.507 1976.076,760.48 1988.1,759.825C2004.559,758.929 2004.096,739.723 1990.582,738.643L1947.01,739.47Z" style="fill:rgb(155,120,53);"/>
        </g>
        <path d="M1853.661,833.602C1889.083,839.975 2043.571,835.038 2082.891,834.679C2086.571,834.645 2087.963,828.844 2087.963,826.061C2087.963,823.278 2082.601,816.611 2078.043,814.211C2071.939,810.997 2058.962,811.996 2051.336,806.777C2043.204,801.211 2036.883,788.375 2029.252,780.816C2022.001,773.633 2011.991,766.711 2005.977,763.12C2002.378,760.972 1997.069,760.313 1992.882,760.119C1983.187,759.67 1956.333,759.824 1946.817,760.004C1943.009,760.076 1937.282,760.835 1933.67,762.043C1929.107,763.569 1923.95,766.635 1920,769.866C1916.364,772.841 1915.095,775.912 1912.371,779.739C1909.304,784.048 1905.382,789.096 1901.881,793.602C1898.492,797.964 1893.236,801.922 1890.094,804.094C1887.731,805.728 1879.821,807.533 1877.148,808.584C1873.078,810.185 1868.156,811.796 1863.818,813.321C1859.378,814.883 1855.241,819.041 1852.368,822.614C1849.556,826.112 1849.243,832.807 1853.661,833.602Z" style="fill:rgb(155,120,53);"/>
        <g transform="matrix(1.032184,0,0,1.036145,-68.988324,-23.768721)">
            <path d="M1743.926,915.887L2209.662,920.695C2209.662,920.695 2209.486,909.567 2205.454,907.019C2199.074,902.986 2196.602,895.229 2183.903,892.756C2177.119,891.435 2157.87,890.821 2151.802,889.686C2146.287,888.654 2139.93,886.131 2134.553,884.529C2126.001,881.983 2107.851,876.737 2098.873,871.911C2091.906,868.167 2085.641,862.386 2080.086,857.82C2075.051,853.679 2070.395,847.197 2067.167,842.847C2064.482,839.228 2061.733,834.626 2061.733,834.626L1884.594,836.535C1884.594,836.535 1876.301,851.964 1871.536,857.159C1867.668,861.376 1859.347,864.021 1856.004,867.703C1852.992,871.02 1836.117,879.53 1831.856,880.914C1821.862,884.162 1803.113,885.365 1793.136,888.022C1784.018,890.451 1765.155,895.311 1755.299,899.77C1737.577,907.789 1743.926,915.887 1743.926,915.887Z" style="fill:rgb(155,120,53);"/>
        </g>
        <path d="M1887.928,1239.92C1891.685,1245.498 1896.795,1254.48 1897.784,1261.132C1899.336,1271.575 1898.725,1280.156 1896.989,1290.57C1890.378,1330.235 1865.883,1347.303 1861.305,1350.492C1837.248,1367.255 1805.915,1378.84 1781.858,1395.602L2168.321,1394.929C2116.137,1374.672 2103.403,1368.314 2071.219,1340.393C2069.797,1339.16 2046.251,1292.961 2045.913,1291.398C2043.822,1281.723 2039.88,1268.289 2043.091,1258.926C2045.737,1251.208 2052.474,1247.517 2054.569,1239.247L1887.928,1239.92Z" style="fill:rgb(155,120,53);"/>
        <g transform="matrix(0.992711,0,0,1,14.346003,2.524803)">
            <path d="M1534.056,1083.615C1533.42,1081.07 1533.515,1074.765 1533.136,1072.169C1533.06,1071.646 1532.417,1067.251 1529.966,1066.369C1487.154,1050.97 1321.044,1005.942 1265.571,976.356C1223.633,953.989 1197.38,933.221 1167.032,860.474C1153.46,827.943 1160.441,781.327 1177.339,758.533C1217.386,704.513 1259.41,696.601 1301.735,690.151C1328.222,686.116 1401.492,690.768 1440.064,734.101C1462.397,759.191 1463.376,758.824 1474.736,790.218C1475.814,793.198 1496.127,825.655 1474.664,881.282C1460.463,918.085 1426.542,927.728 1413.588,892.871C1409.75,882.543 1430.245,862.157 1431.063,861.164C1441.27,848.77 1441.635,846.132 1439.258,825.897C1437.697,812.604 1412.151,758.324 1376.028,743.042C1348.857,731.548 1319.81,720.078 1281.348,736.878C1259.939,746.229 1233.552,756.761 1214.16,796.254C1209.838,805.056 1194.618,855.304 1225.292,890.586C1280.133,953.667 1307.008,959.99 1325.439,966.763C1388.035,989.765 1550.963,1036.56 1570.646,1052.42C1590.522,1068.435 1602.339,1100.913 1582.898,1108.084C1570.106,1112.803 1541.863,1115.87 1537.024,1102.805C1536.093,1100.291 1535.763,1097.714 1535.401,1095.057C1534.725,1090.105 1535.268,1088.463 1534.056,1083.615Z" style="fill:rgb(155,120,53);"/>
        </g>
        <g transform="matrix(1,0,0,1,4.109385,1.101315)">
            <path d="M1490.415,821.927C1493.567,817.65 1497.768,810.351 1503.773,808.138C1510.596,805.625 1524.887,804.763 1531.351,806.846C1536.988,808.662 1540.974,815.248 1542.554,820.634C1544.134,826.021 1542.698,834.351 1540.831,839.163C1539.139,843.523 1534.511,847.566 1531.351,849.505C1528.633,851.173 1524.055,848.473 1521.871,850.797C1519.645,853.167 1517.309,859.278 1517.993,863.724C1518.855,869.326 1522.714,878.251 1527.042,884.408C1532.141,891.661 1539.824,901.524 1548.587,907.245C1559.551,914.404 1577.349,922.572 1592.824,927.358C1608.598,932.236 1626.179,935.584 1643.231,936.515C1677.756,938.4 1747.72,938.539 1799.971,938.669C1904.545,938.929 2183.048,939.375 2270.675,938.074C2289.182,937.8 2308.283,934.32 2325.733,930.866C2342.555,927.537 2358.754,921.585 2375.373,917.353C2395.208,912.303 2424.539,906.587 2444.741,900.565C2462.417,895.297 2478.243,883.177 2496.584,881.224C2530.024,877.664 2616.554,875.981 2645.379,879.205C2656.062,880.399 2666.05,896.063 2669.538,900.565C2670.867,902.281 2668.439,905.816 2666.306,906.218C2657.509,907.878 2632.908,906.799 2616.753,910.527C2599.247,914.567 2578.619,921.221 2561.274,930.456C2540.537,941.498 2514.178,959.771 2492.33,976.778C2461.617,1000.686 2406.384,1051.882 2376.995,1073.906C2358.234,1087.965 2336.001,1097.994 2315.998,1108.923C2296.555,1119.545 2277.627,1131.463 2256.974,1139.481C2230.906,1149.601 2186.665,1163.037 2159.591,1169.644C2138.298,1174.84 2112.622,1176.897 2094.525,1179.123C2080.069,1180.902 2065.565,1182.711 2051.004,1183.002C2015.684,1183.705 1929.562,1187.379 1882.604,1183.346C1844.089,1180.037 1801.034,1168.769 1769.26,1158.801C1742.239,1150.325 1713.98,1134.992 1691.962,1123.542C1672.974,1113.669 1654.462,1102.689 1637.152,1090.104C1619.054,1076.948 1598.256,1058.275 1583.375,1044.601C1570.87,1033.11 1558.631,1021.199 1547.869,1008.061C1534.668,991.945 1515.072,965.821 1504.169,947.905C1495.144,933.075 1486.819,911.884 1482.452,900.565C1479.926,894.018 1477.717,887.008 1477.971,879.996C1478.373,868.869 1482.791,843.481 1484.865,833.803C1485.781,829.53 1487.823,825.445 1490.415,821.927Z" style="fill:rgb(155,120,53);"/>
        </g>
        <path d="M1533.949,915.744C1539.408,923.395 1546.816,929.36 1554.956,934.058C1574.047,945.077 1593.312,955.04 1614.204,962.066C1674.248,982.26 1737.885,987.168 1801.107,986.843C2254.417,984.51 2193.165,989.144 2276.881,978.828C2344.916,970.444 2344.965,970.089 2409.168,945.648C2435.695,935.55 2460.431,920.714 2487.592,912.469C2515.662,903.948 2545.899,904.142 2573.969,895.621L2584.269,892.732C2560.393,897.348 2525.023,896.176 2501.147,900.792C2459.663,908.813 2360.242,949.77 2326.633,956.378C2325.499,956.601 2273.959,962.834 2273.201,962.842C2227.009,963.329 1739.923,968.465 1695.771,965.953C1687.259,965.468 1646.469,963.147 1591.45,944.17C1585.711,942.19 1532.768,915.75 1533.949,915.744Z" style="fill:white;"/>
        <path d="M1846.796,1200.246C1849.016,1199.542 1848.963,1217.276 1849.713,1217.078C1850.463,1216.88 1859.221,1229.787 1865.732,1229.915C1904.399,1230.675 2038.442,1230.474 2078.043,1229.915C2085.593,1229.808 2092.231,1220.445 2095.068,1214.974C2097.813,1209.682 2099.226,1199.236 2093.276,1198.883C2051.897,1196.428 1843.164,1201.398 1846.796,1200.246Z" style="fill:rgb(155,120,53);"/>
    </g>
    <g id="vines">
        <path d="M1286.174,1049.079C1296.102,1048.176 1306.385,1044.997 1320.215,1044.339C1346.317,1043.096 1353.946,1039.393 1368.476,1049.079C1370.23,1050.248 1385.663,1057.876 1393.468,1063.729C1396.666,1066.128 1406.155,1070.242 1402.948,1076.656C1402.437,1077.678 1398.998,1077.923 1398.639,1077.949C1387.778,1078.725 1390.288,1072.265 1370.63,1062.437C1351.956,1053.099 1353.008,1049.079 1332.28,1049.079C1316.414,1049.079 1316.051,1047.976 1312.459,1050.371C1311.631,1050.923 1302.117,1057.266 1302.117,1057.266C1299.43,1059.953 1289.139,1054.503 1290.052,1049.941" style="fill:rgb(83,96,57);stroke:rgb(88,102,62);stroke-width:5px;"/>
        <path d="M1203.036,420.504C1211.166,414.49 1228.861,403.305 1275.726,413.368C1284.33,415.216 1320.144,436.081 1323.939,454.239C1328.551,476.299 1331.02,518.641 1319.749,540.974C1303.791,572.594 1266.499,612.148 1246.561,620.808C1238.563,624.282 1221.546,636.428 1214.579,641.673C1199.676,652.894 1179.083,669.137 1157.141,688.136C1133.822,708.329 1100.508,737.405 1090.865,762.829C1081.608,787.233 1090.339,816.832 1099.281,840.677C1108.223,864.523 1144.166,897.31 1144.517,905.901C1144.868,914.493 1118.022,899.743 1107.848,893.087C1099.707,887.761 1093.712,878.899 1086.086,866.787C1077.178,852.638 1064.214,822.736 1062.461,799.767C1060.707,776.798 1064.948,752.907 1077.721,732.422C1092.273,709.083 1122.695,680.742 1149.777,659.732C1178.707,637.29 1223.067,612.042 1246.561,593.456C1263.093,580.379 1281.137,562.948 1290.746,548.22C1298.976,535.605 1301.971,519.982 1304.214,505.088C1306.459,490.184 1301.531,477.788 1294.727,466.742C1287.924,455.696 1278.399,440.904 1263.393,438.811C1247.051,436.532 1219.135,437.584 1206.16,445.123C1193.466,452.5 1185.256,474.759 1185.545,484.048C1186.521,515.371 1240.095,509.696 1240.693,489.86C1240.984,480.192 1245.1,503.466 1241.436,508.529C1237.773,513.592 1229.526,520.486 1222.375,520.857C1213.735,521.306 1199.333,518.242 1190.917,514.09C1183.942,510.649 1177.125,505.09 1174.085,497.931C1169.892,488.056 1166.891,469.952 1171.716,457.047C1176.541,444.143 1190.291,429.931 1203.036,420.504Z" style="fill:rgb(88,102,62);stroke:rgb(88,102,62);stroke-width:5px;"/>
        <g transform="matrix(0.888032,0,0,0.888032,147.734072,48.555173)">
            <path d="M1481.444,526.716C1464.153,518.07 1429.251,519.026 1423.584,523.56C1412.511,532.418 1412.883,533.136 1410.892,547.319C1408.252,548.838 1366.963,566.373 1400.44,571.952C1416.094,574.561 1400.371,580.715 1397.284,596.148C1394.694,609.1 1373.511,637.049 1394.128,630.864C1395.764,630.373 1399.153,623.092 1400.44,622.448C1400.899,622.218 1400.491,622.373 1415.717,618.149C1410.988,637.062 1417.594,636.506 1419.376,656.112C1420.354,666.872 1419.831,673.693 1428.844,667.684C1428.98,667.594 1435.452,648.584 1439.364,660.32C1444.546,675.865 1438.989,681.53 1455.144,685.568C1457.517,686.162 1454.851,688.431 1475.132,708.712C1499.449,733.029 1492.298,701.9 1498.276,692.932C1515.531,667.05 1522.452,744.521 1530.888,727.649C1534.993,719.44 1543.222,743.318 1543.512,744.481C1545.821,753.717 1553.888,748.357 1555.084,742.377C1557.314,731.23 1561.894,736.313 1571.916,741.325C1574.099,742.416 1570.262,746.533 1594.008,762.365C1600.448,766.658 1602.992,771.182 1605.58,763.417C1609.931,750.364 1613.604,763.286 1626.62,767.625C1627.335,767.863 1632.932,769.729 1635.036,771.833C1640.92,777.716 1641.856,775.1 1656.047,776.114C1656.05,772.464 1656.085,731.282 1661.337,730.805C1663.644,730.595 1683.135,734.425 1672.909,713.972C1667.038,702.231 1667.962,702.132 1666.515,688.8C1676.312,688.104 1687.367,694.417 1685.533,668.736C1684.888,659.705 1675.717,664.537 1668.701,643.488C1661.403,621.597 1647.305,622.789 1642.4,612.98C1632.577,593.333 1647.023,586.128 1663.441,600.356C1703.97,635.482 1699.873,640.728 1704.469,641.384C1705.338,641.509 1714.083,642.758 1714.989,638.228C1718.149,622.426 1724.404,638.749 1740.237,640.332C1756.273,641.936 1756.003,641.631 1771.861,642.564C1760.66,622.921 1760.484,621.609 1762.329,621.396C1770.719,620.428 1801.156,625.127 1819.137,616.136C1828.254,611.578 1819.911,603.234 1819.137,602.46C1797.915,581.238 1834.292,610.663 1861.217,597.2C1868.096,593.761 1874.805,597.069 1870.685,590.888C1847.542,556.174 1829.054,551.464 1843.333,546.704C1847.972,545.158 1844.294,543.457 1829.657,528.82C1820.189,519.352 1818.005,519.352 1819.137,519.352C1820.164,519.352 1840.703,519.352 1829.657,511.988C1816.86,503.456 1818.857,500.935 1804.409,495.156C1803.042,494.609 1781.544,486.01 1788.629,485.688C1807.093,484.849 1809.017,489.496 1819.137,479.376C1835.176,463.336 1792.212,458.023 1769.693,446.764C1768.327,446.081 1768.679,446.347 1751.809,444.66C1760.6,442.148 1760.079,441.58 1768.074,437.425C1723.785,435.211 1720.71,436.374 1722.353,433.088C1726.11,425.574 1734.145,421.891 1725.509,421.516C1651.965,418.318 1643.9,467.502 1617.152,454.128C1592.239,441.671 1643.194,439.658 1675.013,407.84C1679.986,402.866 1664.998,400.84 1671.857,396.268C1688.743,385.01 1696.321,361.755 1695.001,361.552C1689.567,360.716 1646.058,365.711 1640.296,354.188C1636.36,346.315 1578.974,371.051 1598.216,365.76C1595.855,359.218 1595.16,359.894 1593.63,353.051C1590.999,353.619 1570.517,358.038 1564.552,369.968C1564.152,370.768 1560.87,377.332 1556.136,377.332C1555.604,377.332 1555.295,377.332 1554.032,371.02C1551.652,359.116 1544.338,391.668 1538.252,386.8C1526.09,377.07 1518.779,367.887 1506.692,392.06C1498.056,409.333 1506.094,423.42 1487.756,417.308C1476.221,413.463 1471.303,428.396 1506.692,481.48C1508.796,484.636 1512.455,488.295 1513.004,488.844C1522.165,498.005 1500.064,520.483 1483.548,524.612" style="fill:rgb(83,96,57);stroke:rgb(88,102,62);stroke-width:5.63px;"/>
        </g>
        <g transform="matrix(0.119871,0.641265,-0.641265,0.119871,1330.425845,6.248515)">
            <path d="M1481.444,526.716C1464.153,518.07 1429.251,519.026 1423.584,523.56C1412.511,532.418 1412.883,533.136 1410.892,547.319C1408.252,548.838 1366.963,566.373 1400.44,571.952C1416.094,574.561 1400.371,580.715 1397.284,596.148C1394.694,609.1 1373.511,637.049 1394.128,630.864C1395.764,630.373 1399.153,623.092 1400.44,622.448C1400.899,622.218 1400.491,622.373 1415.717,618.149C1410.988,637.062 1417.594,636.506 1419.376,656.112C1420.354,666.872 1419.831,673.693 1428.844,667.684C1428.98,667.594 1435.452,648.584 1439.364,660.32C1444.546,675.865 1438.989,681.53 1455.144,685.568C1457.517,686.162 1454.851,688.431 1475.132,708.712C1499.449,733.029 1492.298,701.9 1498.276,692.932C1515.531,667.05 1522.452,744.521 1530.888,727.649C1534.993,719.44 1543.222,743.318 1543.512,744.481C1545.821,753.717 1553.888,748.357 1555.084,742.377C1557.314,731.23 1561.894,736.313 1571.916,741.325C1574.099,742.416 1570.262,746.533 1594.008,762.365C1600.448,766.658 1602.992,771.182 1605.58,763.417C1609.931,750.364 1613.604,763.286 1626.62,767.625C1627.335,767.863 1632.932,769.729 1635.036,771.833C1640.92,777.716 1641.856,775.1 1656.047,776.114C1656.05,772.464 1656.085,731.282 1661.337,730.805C1663.644,730.595 1683.135,734.425 1672.909,713.972C1667.038,702.231 1667.962,702.132 1666.515,688.8C1676.312,688.104 1687.367,694.417 1685.533,668.736C1684.888,659.705 1675.717,664.537 1668.701,643.488C1661.403,621.597 1647.305,622.789 1642.4,612.98C1632.577,593.333 1647.023,586.128 1663.441,600.356C1703.97,635.482 1699.873,640.728 1704.469,641.384C1705.338,641.509 1714.083,642.758 1714.989,638.228C1718.149,622.426 1724.404,638.749 1740.237,640.332C1756.273,641.936 1756.003,641.631 1771.861,642.564C1760.66,622.921 1760.484,621.609 1762.329,621.396C1770.719,620.428 1801.156,625.127 1819.137,616.136C1828.254,611.578 1819.911,603.234 1819.137,602.46C1797.915,581.238 1834.292,610.663 1861.217,597.2C1868.096,593.761 1874.805,597.069 1870.685,590.888C1847.542,556.174 1829.054,551.464 1843.333,546.704C1847.972,545.158 1844.294,543.457 1829.657,528.82C1820.189,519.352 1818.005,519.352 1819.137,519.352C1820.164,519.352 1840.703,519.352 1829.657,511.988C1816.86,503.456 1818.857,500.935 1804.409,495.156C1803.042,494.609 1781.544,486.01 1788.629,485.688C1807.093,484.849 1809.017,489.496 1819.137,479.376C1835.176,463.336 1792.212,458.023 1769.693,446.764C1768.327,446.081 1768.679,446.347 1751.809,444.66C1760.6,442.148 1760.079,441.58 1768.074,437.425C1723.785,435.211 1720.71,436.374 1722.353,433.088C1726.11,425.574 1734.145,421.891 1725.509,421.516C1651.965,418.318 1643.9,467.502 1617.152,454.128C1592.239,441.671 1643.194,439.658 1675.013,407.84C1679.986,402.866 1664.998,400.84 1671.857,396.268C1688.743,385.01 1696.321,361.755 1695.001,361.552C1689.567,360.716 1646.058,365.711 1640.296,354.188C1636.36,346.315 1578.974,371.051 1598.216,365.76C1595.855,359.218 1595.16,359.894 1593.63,353.051C1590.999,353.619 1570.517,358.038 1564.552,369.968C1564.152,370.768 1560.87,377.332 1556.136,377.332C1555.604,377.332 1555.295,377.332 1554.032,371.02C1551.652,359.116 1544.338,391.668 1538.252,386.8C1526.09,377.07 1518.779,367.887 1506.692,392.06C1498.056,409.333 1506.094,423.42 1487.756,417.308C1476.221,413.463 1471.303,428.396 1506.692,481.48C1508.796,484.636 1512.455,488.295 1513.004,488.844C1522.165,498.005 1500.064,520.483 1483.548,524.612" style="fill:rgb(83,96,57);stroke:rgb(88,102,62);stroke-width:7.66px;"/>
        </g>
        <path d="M1335.346,527.064C1344.654,517.474 1354.174,507.665 1365.644,500.806C1377.412,493.768 1390.488,488.201 1404.021,485.994C1422.628,482.959 1441.969,488.356 1460.576,485.321C1444.379,485.557 1428.971,476.331 1412.773,476.568C1397.585,476.79 1382.654,481.591 1368.337,486.667C1357.735,490.426 1345.827,494.114 1338.712,502.826C1333.553,509.144 1334.534,518.948 1335.346,527.064Z" style="fill:rgb(88,102,62);stroke:rgb(88,102,62);stroke-width:5px;"/>
        <path d="M1052.227,986.441C1031.236,1007.432 969.473,963.995 1019.615,913.853C1058.147,875.321 1149.919,920.021 1185.831,955.933C1206.718,976.819 1206.259,976.849 1223.253,1001.319C1220.133,1001.011 1202.908,999.31 1187.935,984.337C1166.863,963.265 1167.402,963.151 1143.751,945.413C1127.268,933.051 1057.404,907.624 1048.019,917.009C1042.392,922.636 1033.562,914.874 1028.031,936.997C1015.918,985.447 1039.561,977.984 1049.071,987.493" style="fill:rgb(83,96,57);stroke:rgb(88,102,62);stroke-width:5px;"/>
    </g>
    <g id="Grapes">
        <g transform="matrix(1,0,0,1,-28.590751,-12.557658)">
            <ellipse cx="1383.974" cy="1149.379" rx="51.169" ry="49.486" style="fill:rgb(94,31,45);"/>
        </g>
        <g transform="matrix(1,0,0,1,-40.655952,91.72015)">
            <ellipse cx="1383.974" cy="1149.379" rx="51.169" ry="49.486" style="fill:rgb(94,31,45);"/>
        </g>
        <g transform="matrix(1,0,0,1,69.223556,50.784647)">
            <ellipse cx="1383.974" cy="1149.379" rx="51.169" ry="49.486" style="fill:rgb(94,31,45);"/>
        </g>
        <g transform="matrix(1,0,0,1,188.151964,18.898044)">
            <ellipse cx="1383.974" cy="1149.379" rx="51.169" ry="49.486" style="fill:rgb(94,31,45);"/>
        </g>
        <g transform="matrix(1,0,0,1,164.452463,117.870406)">
            <ellipse cx="1383.974" cy="1149.379" rx="51.169" ry="49.486" style="fill:rgb(94,31,45);"/>
        </g>
        <g transform="matrix(1,0,0,1,54.572955,160.664155)">
            <ellipse cx="1383.974" cy="1149.379" rx="51.169" ry="49.486" style="fill:rgb(94,31,45);"/>
        </g>
        <g transform="matrix(0.803275,0,0,0.803275,367.938147,184.077104)">
            <ellipse cx="1383.974" cy="1149.379" rx="51.169" ry="49.486" style="fill:rgb(94,31,45);"/>
        </g>
        <g transform="matrix(1,0,0,1,142.045661,216.842767)">
            <ellipse cx="1383.974" cy="1149.379" rx="51.169" ry="49.486" style="fill:rgb(94,31,45);"/>
        </g>
        <g transform="matrix(0.637895,0,0,0.651701,610.549485,698.90713)">
            <ellipse cx="1383.974" cy="1149.379" rx="51.169" ry="49.486" style="fill:rgb(94,31,45);"/>
        </g>
        <g transform="matrix(0.637895,0,0,0.651701,556.363801,649.420949)">
            <ellipse cx="1383.974" cy="1149.379" rx="51.169" ry="49.486" style="fill:rgb(94,31,45);"/>
        </g>
        <g transform="matrix(1,0,0,1,-28.590751,-12.557658)">
            <ellipse cx="1383.974" cy="1149.379" rx="51.169" ry="49.486" style="fill:rgb(94,31,45);"/>
        </g>
        <g transform="matrix(1,0,0,1,-28.590751,-12.557658)">
            <ellipse cx="1383.974" cy="1149.379" rx="51.169" ry="49.486" style="fill:rgb(94,31,45);"/>
        </g>
    </g>
    <g id="Flame">
        <path d="M2495.28,801.496C2491.082,795.686 2485.977,793.093 2481.582,765.217C2468.464,682.011 2528.953,673.786 2563,588.67C2566.12,580.87 2570.435,557.618 2569.773,543.727C2569.73,542.811 2557.956,506.652 2557.956,506.652C2557.956,506.652 2582.244,533.421 2594.458,547.608C2599.994,554.039 2602.245,560.024 2606.159,567.852C2623.44,602.414 2624.491,617.124 2608.216,645.379C2554.327,738.933 2483.4,724.495 2530.438,806.777C2550.964,842.684 2555.182,841.975 2553.458,847.553" style="fill:rgb(206,159,77);"/>
        <g transform="matrix(1,0,0,1,1.096078,1.378875)">
            <path d="M2639.231,625.005C2637.57,640.376 2635.101,662.707 2626.76,675.724C2615.873,692.714 2597.435,707.293 2584.031,722.376C2570.993,737.046 2554.852,747.101 2549.774,766.058C2545.618,781.574 2552.157,801.577 2557.749,816.635C2564.868,835.806 2580.471,848.721 2587.59,867.892C2599.599,856.783 2607.789,848.703 2619.798,837.594C2630.382,827.804 2644.923,816.005 2654.917,805.613C2663.359,796.836 2669.822,785.904 2674.026,774.474C2678.952,761.084 2683.041,746.611 2681.849,732.394C2680.245,713.276 2673.163,694.843 2665.858,677.103C2659.325,661.237 2648.537,639.421 2639.231,625.005Z" style="fill:rgb(206,159,77);"/>
        </g>
    </g>
    <g id="Rings">
        <g transform="matrix(1.06677,0,0,1,-190.331418,-2.294581)">
            <path d="M2428.402,1474.349C2645.896,1344.236 2777.019,1122.285 2777.019,884.246C2777.019,495.316 2432.486,179.554 2008.118,179.554C1782.614,179.554 1568.478,270.28 1422.387,427.718C1568.478,270.28 1782.614,179.554 2008.118,179.554C2432.486,179.554 2777.019,495.316 2777.019,884.246C2777.019,1122.285 2645.896,1344.236 2428.402,1474.349Z" style="fill:none;stroke:rgb(99,36,49);stroke-width:12.09px;"/>
        </g>
        <g transform="matrix(1.125111,0,0,1.1064,-303.658068,-74.515661)">
            <path d="M2531.063,1400.856C2687.894,1267.509 2777.019,1080.309 2777.019,884.246C2777.019,495.316 2432.486,179.554 2008.118,179.554C1786.193,179.554 1575.091,267.434 1429.079,420.604C1575.091,267.434 1786.193,179.554 2008.118,179.554C2432.486,179.554 2777.019,495.316 2777.019,884.246C2777.019,1080.309 2687.894,1267.509 2531.063,1400.856Z" style="fill:none;stroke:rgb(99,36,49);stroke-width:31.1px;"/>
        </g>
    </g>
    <g transform="matrix(2.637494,0,0,2.637494,-2238.280079,-3932.845668)">
        <text x="1355.383px" y="2114.506px" style="font-family:'LiberationSerif-Bold', 'Liberation Serif', serif;font-weight:700;font-size:128px;fill:rgb(94,31,45);">Sonoma</text>
        <g transform="matrix(128,0,0,128,1824.758222,2175.169548)">
        </g>
        <text x="1355.383px" y="2175.17px" style="font-family:'LiberationSerif-Bold', 'Liberation Serif', serif;font-weight:700;font-size:128px;fill:rgb(83,96,57);">Scholars</text>
    </g>
</svg>
